<svg
      xmlns="http://www.w3.org/2000/svg"
      viewBox="0 0 24 24"
      fill="none"
      stroke="currentColor"
      strokeWidth="2"
      strokeLinecap="round"
      strokeLinejoin="round"
    >
      <path d="M12 2a10 10 0 1 0 4.55 18.2" />
      <path d="M12 12v-2a2 2 0 0 1 2-2h2" />
      <path d="M12 12h-2a2 2 0 0 0-2 2v2" />
      <path d="M12 12a2 2 0 0 1-2-2V8" />
      <path d="M12 12a2 2 0 0 0 2 2h2" />
      <path d="M12 8a2 2 0 0 0-2-2H8" />
      <path d="M12 16a2 2 0 0 1 2 2v2" />
      <path d="M10 12a2 2 0 0 0-2-2H6" />
      <path d="M14 12a2 2 0 0 1 2 2v2" />
      <circle cx="12" cy="12" r="2" />
    </svg>